<?xml version="1.0" encoding="UTF-8"?>
<svg id="Calque_1" data-name="Calque 1" xmlns="http://www.w3.org/2000/svg" viewBox="0 0 350 600">
  <defs>
    <style>
      .cls-1 {
        fill-rule: evenodd;
      }

      .cls-1, .cls-2 {
        fill: #fff;
      }

      .cls-3 {
        fill: #ffcf64;
      }
    </style>
  </defs>
  <path class="cls-2" d="M92.62,402.69h-15.92c-30.26,0-54.88-24.62-54.88-54.88v-125.74C21.81,108.93,113.86,16.89,226.99,16.89h38.4c34.63,0,62.8,28.17,62.8,62.8s-28.21,62.89-62.89,62.89h-50.58c-36.43,0-67.21,30.78-67.21,67.21v138.02c0,30.26-24.62,54.88-54.88,54.88ZM226.99,20.16C115.66,20.16,25.09,110.73,25.09,222.06v125.74c0,28.46,23.15,51.61,51.61,51.61h15.92c28.46,0,51.61-23.15,51.61-51.61v-138.02c0-18.64,7.39-36.28,20.8-49.69,13.41-13.41,31.06-20.8,49.69-20.8h50.58c32.87,0,59.62-26.74,59.62-59.62s-26.7-59.52-59.52-59.52h-38.4Z"/>
  <g>
    <path class="cls-1" d="M204.14,391.85v-52.93s0-15.92,0-15.92v-69.17c0-29.41,23.84-53.24,53.24-53.24h15.92c29.41,0,53.24,23.84,53.24,53.24v125.74c0,111.95-91.59,203.54-203.54,203.54H35.73c-6.78,0-12.27-5.5-12.27-12.27v-48.88c0-33.83,27.43-61.26,61.26-61.26h50.58c37.63,0,68.85-31.22,68.85-68.85"/>
    <circle class="cls-3" cx="265.34" cy="79.73" r="39.47"/>
  </g>
</svg>